<?xml version="1.0" encoding="utf-8"?>
<!-- Generator: Adobe Illustrator 24.2.3, SVG Export Plug-In . SVG Version: 6.00 Build 0)  -->
<svg version="1.1" id="Layer_1" xmlns="http://www.w3.org/2000/svg" xmlns:xlink="http://www.w3.org/1999/xlink" x="0px" y="0px"
	 viewBox="0 0 432 144" style="enable-background:new 0 0 432 144;" xml:space="preserve">
<style type="text/css">
	.st0{fill:#FFE26A;}
</style>
<g>
	<g>
		<path d="M139.97,104.24v1.91h-2.35v-2.04c0-2-0.8-3.21-2.61-3.21c-1.78,0-2.61,1.21-2.61,3.21v11.77c0,2,0.83,3.21,2.61,3.21
			c1.81,0,2.61-1.21,2.61-3.21v-4.45h-2.29v-2.23h4.64v6.55c0,3.37-1.59,5.6-5.03,5.6c-3.4,0-4.99-2.23-4.99-5.6v-11.51
			c0-3.37,1.59-5.6,4.99-5.6C138.38,98.64,139.97,100.87,139.97,104.24z"/>
		<path d="M147.29,98.86c3.5,0,4.96,1.78,4.96,5.09v1.81c0,2.45-0.86,3.98-2.77,4.58c2.03,0.6,2.8,2.26,2.8,4.64v3.47
			c0,0.99,0.03,1.91,0.45,2.67h-2.51c-0.29-0.64-0.41-1.21-0.41-2.7v-3.5c0-2.51-1.18-3.31-3.25-3.31h-1.75v9.51h-2.48V98.86H147.29
			z M146.65,109.36c1.97,0,3.15-0.64,3.15-3.05v-2.13c0-2-0.73-3.05-2.58-3.05h-2.42v8.24H146.65z"/>
		<path d="M157.37,116.64l-0.86,4.49h-2.29l4.26-22.26h3.59l4.26,22.26h-2.48l-0.86-4.49H157.37z M157.69,114.51h4.96l-2.51-12.85
			L157.69,114.51z"/>
		<path d="M170.48,121.13h-2.23V98.86h3.15l5.15,16.09V98.86h2.19v22.26h-2.58l-5.69-18V121.13z"/>
		<path d="M184.5,121.13v-20.01h-4.1v-2.26h10.66v2.26h-4.1v20.01H184.5z"/>
		<path d="M203.59,121.13h-3.4l-3.05-22.26h2.42l2.61,18.96l2.48-18.92h2.45l2.45,18.96l2.51-18.99h2.16l-3.02,22.26h-3.28
			l-2.13-15.11L203.59,121.13z"/>
		<path d="M221.18,98.86c3.5,0,4.96,1.78,4.96,5.09v1.81c0,2.45-0.86,3.98-2.77,4.58c2.04,0.6,2.8,2.26,2.8,4.64v3.47
			c0,0.99,0.03,1.91,0.45,2.67h-2.51c-0.29-0.64-0.41-1.21-0.41-2.7v-3.5c0-2.51-1.18-3.31-3.24-3.31h-1.75v9.51h-2.48V98.86H221.18
			z M220.54,109.36c1.97,0,3.15-0.64,3.15-3.05v-2.13c0-2-0.73-3.05-2.58-3.05h-2.42v8.24H220.54z"/>
		<path d="M231.23,98.86v22.26h-2.48V98.86H231.23z"/>
		<path d="M236.99,121.13v-20.01h-4.1v-2.26h10.66v2.26h-4.1v20.01H236.99z"/>
		<path d="M247.71,98.86v22.26h-2.48V98.86H247.71z"/>
		<path d="M252.45,121.13h-2.23V98.86h3.15l5.15,16.09V98.86h2.19v22.26h-2.58l-5.69-18V121.13z"/>
		<path d="M273.09,104.24v1.91h-2.35v-2.04c0-2-0.79-3.21-2.61-3.21c-1.78,0-2.61,1.21-2.61,3.21v11.77c0,2,0.83,3.21,2.61,3.21
			c1.81,0,2.61-1.21,2.61-3.21v-4.45h-2.29v-2.23h4.64v6.55c0,3.37-1.59,5.6-5.03,5.6c-3.4,0-4.99-2.23-4.99-5.6v-11.51
			c0-3.37,1.59-5.6,4.99-5.6C271.5,98.64,273.09,100.87,273.09,104.24z"/>
		<path d="M322.49,104.24c0-3.4,1.68-5.6,5.09-5.6c3.44,0,5.12,2.19,5.12,5.6v11.51c0,3.37-1.68,5.6-5.12,5.6
			c-3.4,0-5.09-2.23-5.09-5.6V104.24z M324.94,115.88c0,2.04,0.86,3.21,2.64,3.21c1.81,0,2.64-1.18,2.64-3.21v-11.77
			c0-2-0.83-3.21-2.64-3.21c-1.78,0-2.64,1.21-2.64,3.21V115.88z"/>
		<path d="M337.25,121.13h-2.23V98.86h3.15l5.15,16.09V98.86h2.19v22.26h-2.58l-5.69-18V121.13z"/>
		<path d="M357.7,104.21v0.6h-2.35v-0.73c0-2-0.76-3.18-2.54-3.18c-1.78,0-2.54,1.18-2.54,3.15c0,4.99,7.47,5.47,7.47,11.74
			c0,3.37-1.62,5.57-5.03,5.57c-3.4,0-4.99-2.19-4.99-5.57v-1.27h2.32v1.4c0,2,0.83,3.18,2.61,3.18c1.78,0,2.61-1.18,2.61-3.18
			c0-4.96-7.44-5.44-7.44-11.71c0-3.43,1.59-5.57,4.93-5.57C356.11,98.64,357.7,100.84,357.7,104.21z"/>
		<path d="M362.25,115.88c0,2,0.79,3.21,2.61,3.21c1.78,0,2.58-1.21,2.58-3.21V98.86h2.32v16.89c0,3.37-1.56,5.63-4.99,5.63
			c-3.4,0-4.96-2.26-4.96-5.63V98.86h2.45V115.88z"/>
		<path d="M372.21,121.13V98.86h2.48v20.01h6.36v2.26H372.21z"/>
		<path d="M384.55,121.13v-20.01h-4.1v-2.26h10.66v2.26H387v20.01H384.55z"/>
		<path d="M395.27,98.86v22.26h-2.48V98.86H395.27z"/>
		<path d="M400.01,121.13h-2.23V98.86h3.15l5.15,16.09V98.86h2.19v22.26h-2.58l-5.69-18V121.13z"/>
		<path d="M420.65,104.24v1.91h-2.35v-2.04c0-2-0.79-3.21-2.61-3.21c-1.78,0-2.61,1.21-2.61,3.21v11.77c0,2,0.83,3.21,2.61,3.21
			c1.81,0,2.61-1.21,2.61-3.21v-4.45h-2.29v-2.23h4.64v6.55c0,3.37-1.59,5.6-5.03,5.6c-3.4,0-4.99-2.23-4.99-5.6v-11.51
			c0-3.37,1.59-5.6,4.99-5.6C419.06,98.64,420.65,100.87,420.65,104.24z"/>
		<path d="M320.42,106.24v-2c0-3.37-1.59-5.6-5.03-5.6c-1.73,0-2.98,0.58-3.81,1.58c0.21,0.24,0.39,0.51,0.5,0.83
			c0,0.01,0.01,0.02,0.01,0.02c0.13,0.36,0.19,0.73,0.19,1.11c0,0.59-0.17,1.19-0.48,1.72c-0.12,0.2-0.23,0.38-0.34,0.54
			c-0.24,0.36-0.52,0.76-0.83,1.19c-0.07,0.1-0.16,0.2-0.24,0.29v9.83c0,3.37,1.59,5.6,4.99,5.6c3.43,0,5.03-2.23,5.03-5.6v-2.77
			h-2.36v2.89c0,2-0.79,3.21-2.61,3.21c-1.78,0-2.61-1.21-2.61-3.21v-11.77c0-2,0.83-3.21,2.61-3.21c1.81,0,2.61,1.21,2.61,3.21
			v2.13H320.42z"/>
	</g>
	<g>
		<path d="M266.14,56.73c1.09,0,2.01-0.45,2.77-1.35c0.76-0.9,1.14-1.89,1.14-2.98c0-0.81-0.26-1.53-0.77-2.16
			c-0.52-0.62-1.21-0.94-2.08-0.94c-1.09,0-2,0.46-2.73,1.39c-0.73,0.93-1.1,1.9-1.1,2.93c0,0.81,0.24,1.54,0.73,2.16
			C264.59,56.42,265.27,56.73,266.14,56.73z"/>
		<path d="M337.58,62.03c-0.57-1.09-1.35-1.98-2.32-2.69c-0.98-0.71-2.23-1.06-3.75-1.06c-2.45,0-4.6,0.75-6.48,2.24
			c-1.88,1.5-3.47,3.33-4.77,5.5c-1.3,2.17-2.3,4.51-2.98,7.01c-0.68,2.5-1.02,4.78-1.02,6.85c0,1.2,0.13,2.45,0.41,3.75
			c0.27,1.3,0.71,2.47,1.3,3.5c0.6,1.03,1.4,1.89,2.4,2.57c1.01,0.68,2.24,1.02,3.71,1.02c1.14,0,2.25-0.2,3.34-0.61
			c1.09-0.41,2.09-0.91,3.02-1.51c1.57-1.03,2.91-2.28,3.99-3.75c1.09-1.47,1.98-3.04,2.69-4.73c0.71-1.68,1.22-3.44,1.55-5.26
			c0.33-1.82,0.49-3.63,0.49-5.42c0-1.25-0.12-2.53-0.37-3.83C338.55,64.31,338.15,63.12,337.58,62.03z M335.42,74.87
			c-0.22,1.33-0.56,2.62-1.02,3.87c-0.46,1.25-1.06,2.43-1.79,3.55c-0.73,1.11-1.62,2.08-2.65,2.89c-0.54,0.44-1.13,0.8-1.75,1.1
			c-0.63,0.3-1.29,0.45-2,0.45c-0.81,0-1.49-0.23-2.04-0.69c-0.54-0.46-0.96-1.02-1.26-1.67c-0.3-0.65-0.5-1.37-0.61-2.16
			c-0.11-0.79-0.16-1.51-0.16-2.16c0-1.25,0.2-2.8,0.61-4.65c0.41-1.85,1.01-3.64,1.79-5.38c0.79-1.74,1.77-3.23,2.93-4.48
			c1.17-1.25,2.51-1.87,4.04-1.87c0.87,0,1.57,0.26,2.12,0.77c0.54,0.52,0.98,1.14,1.3,1.87c0.33,0.73,0.54,1.54,0.65,2.4
			c0.11,0.87,0.16,1.63,0.16,2.28C335.74,72.24,335.63,73.54,335.42,74.87z"/>
		<path d="M414.93,73.03c-0.14-0.38-0.45-0.57-0.94-0.57c-0.54,0-1.03,0.33-1.47,0.98c-0.44,0.65-0.79,1.2-1.06,1.63
			c-0.54,0.93-1.29,2.04-2.24,3.34c-0.95,1.3-1.98,2.54-3.1,3.71c-1.11,1.17-2.3,2.16-3.54,2.98c-1.25,0.82-2.47,1.22-3.67,1.22
			c-0.81,0-1.47-0.54-1.96-1.63c-0.49-1.09-0.84-2.35-1.06-3.79c-0.22-1.44-0.35-2.85-0.41-4.24c-0.06-1.39-0.08-2.38-0.08-2.98
			c1.3-2.55,2.76-5.6,4.36-9.13c1.6-3.53,3.1-7.19,4.48-10.96c1.39-3.78,2.54-7.51,3.46-11.21c0.92-3.7,1.39-6.96,1.39-9.78
			c0-0.71-0.06-1.56-0.16-2.57c-0.11-1.01-0.33-1.97-0.65-2.89c-0.33-0.92-0.79-1.71-1.39-2.36c-0.6-0.65-1.39-0.98-2.36-0.98
			c-0.82,0-1.62,0.27-2.41,0.81c-0.79,0.54-1.48,1.09-2.08,1.63c-1.14,1.03-2.2,2.44-3.18,4.24c-0.98,1.79-1.89,3.76-2.73,5.91
			s-1.58,4.43-2.2,6.85c-0.63,2.42-1.17,4.78-1.63,7.09c-0.46,2.31-0.8,4.52-1.02,6.64c-0.22,2.12-0.33,3.94-0.33,5.46
			c-1.09-1.25-2.47-1.88-4.16-1.88c-1.25,0-2.57,0.34-3.95,1.02c-1.39,0.68-2.54,1.4-3.46,2.16c-2.39,2.07-4.28,4.63-5.67,7.7
			c-0.45,0.99-0.79,1.98-1.1,2.98c-0.32,0.47-0.62,0.94-0.9,1.42c-0.33,0.57-0.68,1.13-1.06,1.67c-0.54,0.76-1.26,1.71-2.16,2.85
			c-0.9,1.14-1.87,2.24-2.93,3.3c-1.06,1.06-2.16,1.96-3.3,2.69c-1.14,0.73-2.2,1.1-3.18,1.1c-1.14,0-2.04-0.52-2.69-1.55
			c-0.65-1.03-1.17-2.25-1.55-3.67s-0.62-2.84-0.73-4.28c-0.11-1.44-0.17-2.57-0.17-3.38c0-0.49,0.01-1.1,0.04-1.83
			c0.03-0.73,0.12-1.32,0.28-1.75c0.11-0.38,0.31-0.79,0.61-1.22c0.3-0.43,0.56-0.81,0.78-1.14c0.65-1.09,1.32-2.13,2-3.14
			c0.68-1.01,1.32-2.05,1.91-3.14c1.25-2.23,2.47-4.75,3.67-7.58c1.19-2.83,2.28-5.73,3.26-8.72c0.98-2.99,1.76-5.98,2.36-8.97
			c0.6-2.99,0.9-5.76,0.9-8.31c0-0.76-0.08-1.57-0.24-2.44c-0.16-0.87-0.42-1.67-0.78-2.4c-0.35-0.73-0.84-1.33-1.47-1.79
			c-0.62-0.46-1.42-0.69-2.4-0.69c-1.2,0-2.38,0.44-3.55,1.3c-1.17,0.87-2.25,1.94-3.26,3.22c-1.01,1.28-1.89,2.59-2.65,3.95
			s-1.36,2.53-1.79,3.51c-2.28,5.27-3.88,10.69-4.81,16.26c-0.92,5.57-1.39,11.21-1.39,16.91c0,1.03,0.04,2.39,0.12,4.08
			c0.08,1.68,0.23,3.49,0.45,5.42c0.22,1.93,0.54,3.86,0.98,5.79c0.44,1.93,1.03,3.67,1.79,5.22c0.76,1.55,1.67,2.81,2.73,3.79
			c1.06,0.98,2.35,1.47,3.87,1.47c1.68,0,3.37-0.53,5.05-1.59c1.68-1.06,3.29-2.35,4.81-3.87c1.52-1.52,2.89-3.15,4.12-4.89
			c0.12-0.16,0.22-0.32,0.33-0.48c0.04,0.51,0.11,1.04,0.24,1.62c0.19,0.87,0.47,1.7,0.85,2.49c0.38,0.79,0.88,1.46,1.51,2
			c0.62,0.54,1.37,0.81,2.24,0.81c1.19,0,2.5-0.38,3.91-1.14c1.41-0.76,2.8-1.67,4.16-2.73c1.36-1.06,2.64-2.19,3.83-3.38
			c1.19-1.19,2.17-2.2,2.93-3.02c0.16,1.09,0.42,2.34,0.77,3.75c0.35,1.41,0.86,2.76,1.51,4.04c0.65,1.28,1.45,2.36,2.41,3.26
			c0.95,0.9,2.13,1.35,3.54,1.35c1.74,0,3.38-0.44,4.93-1.3c1.55-0.87,3-1.94,4.36-3.22c1.36-1.28,2.59-2.68,3.71-4.2
			c1.11-1.52,2.11-2.93,2.98-4.24c0.33-0.49,0.67-1.03,1.02-1.63c0.35-0.6,0.53-1.19,0.53-1.79
			C415.13,73.79,415.06,73.41,414.93,73.03z M351.72,62.35c0-0.38,0-0.79,0-1.22c0-3.91,0.48-8,1.43-12.27s2-8.27,3.14-12.02
			c0.22-0.65,0.53-1.63,0.94-2.93c0.41-1.3,0.9-2.58,1.47-3.83c0.57-1.25,1.24-2.35,2-3.3c0.76-0.95,1.58-1.43,2.45-1.43
			c0.33,0,0.57,0.12,0.73,0.37c0.16,0.25,0.28,0.53,0.37,0.86c0.08,0.33,0.12,0.68,0.12,1.06c0,0.33,0,0.57,0,0.73
			c0,2.61-0.41,5.49-1.22,8.64c-0.82,3.15-1.83,6.32-3.06,9.5c-1.22,3.18-2.58,6.25-4.08,9.21s-2.89,5.56-4.2,7.78
			C351.74,63.06,351.72,62.68,351.72,62.35z M386.56,76.05c-1.17,1.3-2.46,2.61-3.87,3.91c-1.41,1.3-2.82,2.44-4.24,3.42
			c-1.41,0.98-2.55,1.47-3.42,1.47c-0.44,0-0.68-0.2-0.73-0.61c-0.06-0.41-0.08-0.75-0.08-1.02c0-1.68,0.41-3.53,1.22-5.54
			c0.82-2.01,1.9-3.87,3.26-5.58c1.36-1.71,2.91-3.15,4.65-4.32c1.74-1.17,3.53-1.75,5.38-1.75c0,1.2,0,2.36,0,3.5
			c0,1.14,0.06,2.31,0.16,3.51C388.5,73.74,387.73,74.74,386.56,76.05z M394.92,66.1c0-1.19,0.11-2.78,0.33-4.77
			c0.22-1.98,0.53-4.17,0.94-6.56c0.41-2.39,0.88-4.86,1.43-7.42c0.54-2.55,1.13-4.97,1.75-7.25c0.62-2.28,1.29-4.31,2-6.07
			c0.71-1.77,1.41-3.06,2.12-3.87c0.16-0.16,0.35-0.35,0.57-0.57c0.22-0.22,0.46-0.33,0.73-0.33c0.22,0,0.38,0.1,0.49,0.28
			c0.11,0.19,0.19,0.42,0.24,0.69c0.05,0.27,0.08,0.54,0.08,0.81c0,0.22,0,0.38,0,0.49c0,2.5-0.35,5.33-1.06,8.48
			c-0.71,3.15-1.59,6.33-2.65,9.54c-1.06,3.21-2.21,6.33-3.46,9.37c-1.25,3.04-2.42,5.71-3.5,7.99V66.1z"/>
		<g>
			<path d="M278.5,81.11c0.05,0.58,0.11,1.15,0.23,1.71c0.19,0.93,0.51,1.74,0.98,2.45c0.46,0.71,1.07,1.28,1.84,1.71
				c0.76,0.44,1.71,0.65,2.85,0.65c1.63,0,3.3-0.54,5.01-1.63c1.71-1.09,3.33-2.41,4.85-3.95c1.52-1.55,2.92-3.18,4.2-4.89
				c1.28-1.71,2.3-3.22,3.06-4.52c0.11,1.09,0.17,2.19,0.2,3.3c0.03,1.11,0.04,2.22,0.04,3.3c0,1.3-0.12,3.11-0.37,5.42
				s-0.61,4.81-1.1,7.5c-0.29,1.62-0.66,3.26-1.07,4.9c0.19-0.12,0.39-0.23,0.61-0.34c0.33-0.16,0.66-0.28,0.99-0.37
				c0.04-0.28,0.09-0.56,0.15-0.84c0.13-0.64,0.28-1.3,0.45-1.98c0.19-0.73,0.41-1.43,0.67-2.07c0.25-0.65,0.54-1.26,0.84-1.82
				c0.39-0.72,0.83-1.29,1.34-1.75c0.22-0.2,0.49-0.41,0.79-0.62c0.78-0.54,1.71-0.71,2.57-0.56c0.03-0.26,0.07-0.52,0.1-0.78
				c0.46-3.91,0.76-7.62,0.9-11.13c0.13-3.51,0.2-6.43,0.2-8.76c0-0.92-0.26-1.68-0.78-2.28c-0.52-0.6-1.26-0.9-2.24-0.9
				c-1.14,0-2.12,0.48-2.93,1.43c-0.82,0.95-1.44,1.89-1.87,2.81c-0.44,1.09-1.28,2.55-2.53,4.4c-1.25,1.85-2.65,3.65-4.2,5.42
				c-1.55,1.77-3.15,3.29-4.81,4.57c-1.66,1.28-3.11,1.91-4.36,1.91c-0.98,0-1.64-0.31-2-0.94c-0.35-0.62-0.53-1.37-0.53-2.24
				c0-1.14,0.23-2.36,0.69-3.67c0.46-1.3,1.05-2.58,1.75-3.83c0.71-1.25,1.48-2.43,2.32-3.55c0.84-1.11,1.64-2.08,2.41-2.89
				c1.68-1.74,3.63-3.25,5.83-4.52c2.2-1.28,4.58-1.92,7.13-1.92c0.76,0,1.48,0.12,2.16,0.37c0.68,0.24,1.29,0.5,1.84,0.77
				c0.54,0.27,1.03,0.53,1.47,0.77c0.43,0.24,0.79,0.37,1.06,0.37c0.22,0,0.42-0.07,0.61-0.2c0.19-0.14,0.28-0.34,0.28-0.61
				c0-0.76-0.35-1.43-1.06-2c-0.71-0.57-1.55-1.03-2.53-1.39c-0.98-0.35-1.96-0.62-2.93-0.81c-0.98-0.19-1.77-0.29-2.36-0.29
				c-2.93,0-5.68,0.56-8.23,1.67s-4.86,2.7-6.93,4.77c-1.03,1.03-2.01,2.2-2.93,3.51c-0.93,1.3-1.74,2.69-2.45,4.16
				c-0.6,1.25-1.07,2.54-1.46,3.86c-0.49,0.76-1.1,1.67-1.84,2.75c-1.01,1.47-2.12,2.89-3.34,4.28c-1.22,1.39-2.47,2.58-3.75,3.59
				c-1.28,1.01-2.46,1.51-3.54,1.51c-0.71,0-1.25-0.3-1.63-0.9c-0.38-0.6-0.67-1.3-0.86-2.12c-0.19-0.81-0.3-1.63-0.33-2.44
				c-0.03-0.82-0.04-1.47-0.04-1.96c0-2.5,0.24-4.92,0.73-7.25c0.16-0.6,0.38-1.29,0.65-2.08c0.27-0.79,0.54-1.57,0.82-2.36
				c0.27-0.79,0.5-1.55,0.69-2.28c0.19-0.73,0.28-1.37,0.28-1.92c0-1.19-0.62-1.79-1.87-1.79c-1.74,0-3.03,0.5-3.87,1.51
				c-0.84,1.01-1.51,2.24-2,3.71c-0.44,1.41-0.83,3.06-1.18,4.93c-0.23,1.23-0.36,2.36-0.44,3.43c-0.1,0.09-0.2,0.19-0.29,0.31
				c-0.35,0.46-0.67,0.88-0.94,1.26c-0.49,0.76-1.25,1.78-2.28,3.06c-1.03,1.28-2.15,2.54-3.34,3.79c-1.19,1.25-2.4,2.34-3.63,3.26
				c-1.22,0.93-2.3,1.39-3.22,1.39c-0.76,0-1.21-0.37-1.35-1.1c-0.14-0.73-0.2-1.37-0.2-1.92c0-1.96,0.16-3.88,0.49-5.79
				c0.33-1.9,0.71-3.8,1.14-5.71c0.27-1.19,0.41-2.25,0.41-3.18c0-1.79-0.38-3.22-1.14-4.28c-0.76-1.06-1.67-1.96-2.73-2.69
				c-1.06-0.73-2.13-1.41-3.22-2.04c-1.09-0.62-1.96-1.43-2.61-2.4c0.17-1.3,0.25-2.61,0.25-3.91c0-0.43-0.03-1-0.08-1.71
				c-0.06-0.71-0.19-1.4-0.41-2.08c-0.22-0.68-0.49-1.28-0.81-1.79c-0.33-0.52-0.79-0.77-1.39-0.77c-0.82,0-1.52,0.35-2.12,1.06
				c-0.6,0.71-1.1,1.55-1.51,2.53c-0.41,0.98-0.71,1.98-0.9,3.02c-0.19,1.03-0.28,1.87-0.28,2.53c0,1.25,0.16,2.46,0.49,3.63
				c0.33,1.17,0.87,2.24,1.63,3.22c-0.33,2.77-1.18,5.35-2.57,7.74c-1.23,2.12-2.55,4.19-3.93,6.23c-0.12,0.15-0.23,0.3-0.35,0.46
				c-0.98,1.25-2.04,2.46-3.18,3.63c-1.14,1.17-2.31,2.19-3.51,3.06c-1.2,0.87-2.28,1.3-3.26,1.3c-0.65,0-1.15-0.34-1.51-1.02
				c-0.35-0.68-0.61-1.47-0.77-2.36c-0.16-0.9-0.26-1.78-0.29-2.65c-0.03-0.87-0.04-1.52-0.04-1.96c0-1.41,0.09-2.92,0.29-4.52
				c0.19-1.6,0.5-3.11,0.94-4.52c0.22-0.6,0.52-1.39,0.9-2.36c0.38-0.98,0.57-1.77,0.57-2.36c0-0.54-0.2-0.9-0.61-1.06
				c-0.41-0.16-0.83-0.24-1.26-0.24c-0.76,0-1.35,0.26-1.75,0.77c-0.41,0.52-0.75,1.07-1.02,1.67c-0.27,0.54-0.67,1.37-1.18,2.49
				c-0.52,1.11-1.13,2.32-1.83,3.63c-0.71,1.3-1.45,2.65-2.24,4.04c-0.79,1.38-1.59,2.64-2.41,3.75c-0.81,1.11-1.6,2.04-2.36,2.77
				c-0.76,0.73-1.44,1.1-2.04,1.1c-0.49,0-0.79-0.24-0.9-0.73s-0.16-0.9-0.16-1.22c0-3.1,0.62-5.99,1.88-8.68
				c1.25-2.69,2.93-5.12,5.05-7.29c1.19-1.25,2.46-2.35,3.79-3.3c1.33-0.95,2.73-1.86,4.2-2.73c0.22-0.11,0.41-0.23,0.57-0.37
				c0.16-0.14,0.24-0.34,0.24-0.61c0-0.6-0.3-1.17-0.9-1.71c-0.6-0.54-1.2-0.81-1.79-0.81c-2.39,0-4.69,0.81-6.89,2.44
				c-2.2,1.63-4.16,3.65-5.87,6.07c-1.71,2.42-3.08,4.99-4.12,7.7c-0.45,1.19-0.79,2.31-1.04,3.39c-0.51,0.81-1.04,1.6-1.61,2.36
				c-0.79,1.06-1.66,1.97-2.61,2.73c-0.95,0.76-2,1.14-3.14,1.14c-0.81,0-1.47-0.41-1.96-1.22c-0.49-0.81-0.87-1.78-1.14-2.89
				c-0.27-1.11-0.45-2.23-0.53-3.34s-0.12-1.97-0.12-2.57c0-3.75,0.17-7.44,0.53-11.09c0.35-3.64,0.83-7.28,1.43-10.92
				c0.22-1.25,0.41-2.47,0.57-3.67c0.16-1.19,0.24-2.42,0.24-3.67c0-0.7-0.08-1.45-0.24-2.24c-0.16-0.79-0.71-1.18-1.63-1.18
				c-0.65,0-1.3,0.14-1.96,0.41c-0.49,0.22-0.88,0.56-1.18,1.02c-0.3,0.46-0.54,0.98-0.73,1.55c-0.19,0.57-0.34,1.15-0.45,1.75
				c-0.11,0.6-0.22,1.14-0.33,1.63c-0.33,1.47-0.84,2.89-1.55,4.28c-0.71,1.39-1.36,2.79-1.96,4.2c-1.36,2.99-2.75,5.92-4.16,8.8
				c-1.41,2.88-2.88,5.79-4.4,8.72c-1.03,1.96-2.07,3.9-3.1,5.83c-1.03,1.93-2.15,3.85-3.34,5.75c-0.16,0.22-0.37,0.52-0.61,0.9
				c-0.24,0.38-0.52,0.76-0.81,1.14c-0.3,0.38-0.6,0.71-0.9,0.98c-0.3,0.27-0.58,0.41-0.86,0.41c-0.44,0-0.75-0.5-0.94-1.51
				c-0.19-1.01-0.33-2.15-0.41-3.42c-0.08-1.28-0.11-2.51-0.08-3.71c0.03-1.19,0.04-1.96,0.04-2.28c0-5.43,0.07-10.79,0.2-16.06
				c0.13-5.27,0.2-10.62,0.2-16.06c0-0.49-0.01-1.28-0.04-2.36c-0.03-1.09-0.1-2.2-0.2-3.34c-0.11-1.14-0.3-2.19-0.57-3.14
				c-0.27-0.95-0.65-1.54-1.14-1.75c-0.65-0.33-1.41-0.49-2.28-0.49c-0.38,0-0.92,0.11-1.63,0.33c-0.71,0.22-1.39,0.5-2.04,0.86
				c-0.65,0.35-1.22,0.76-1.71,1.22c-0.49,0.46-0.73,0.94-0.73,1.43c0,0.22,0.03,0.38,0.08,0.49c0.38,1.09,0.62,2.19,0.73,3.3
				c0.11,1.11,0.16,2.24,0.16,3.38c0,1.68-0.24,4.09-0.73,7.21c-0.49,3.13-1.2,6.51-2.12,10.15c-0.93,3.64-2.04,7.36-3.34,11.17
				c-1.3,3.8-2.78,7.25-4.44,10.35c-1.66,3.1-3.45,5.62-5.38,7.58c-1.93,1.96-3.98,2.93-6.15,2.93c-0.6,0-1.18-0.07-1.75-0.2
				c-0.57-0.14-1.15-0.2-1.75-0.2c-0.43,0-0.8,0.16-1.1,0.49c-0.3,0.33-0.45,0.71-0.45,1.14c0,0.49,0.12,0.87,0.37,1.14
				c0.24,0.27,0.56,0.49,0.94,0.65c0.38,0.16,0.79,0.26,1.22,0.29c0.44,0.03,0.84,0.04,1.22,0.04c2.28,0,4.36-0.54,6.23-1.63
				c1.87-1.09,3.59-2.51,5.13-4.28c1.55-1.77,2.92-3.79,4.12-6.07c1.19-2.28,2.25-4.59,3.18-6.93c0.92-2.34,1.74-4.63,2.45-6.89
				c0.71-2.25,1.33-4.25,1.87-5.99c0.05-0.11,0.11-0.27,0.16-0.49c0.06-0.22,0.14-0.33,0.25-0.33s0.16,0.11,0.16,0.33
				c0,0.22,0,0.35,0,0.41c0,1.96,0.01,4.12,0.04,6.48c0.03,2.36,0.14,4.77,0.33,7.21c0.19,2.45,0.49,4.81,0.9,7.09
				c0.41,2.28,0.96,4.32,1.67,6.11c0.38,0.92,0.94,1.75,1.67,2.49c0.73,0.73,1.64,1.1,2.73,1.1c1.41,0,2.91-0.76,4.48-2.28
				c1.58-1.52,3.14-3.44,4.69-5.75c1.55-2.31,3.06-4.81,4.52-7.5s2.78-5.19,3.95-7.5c1.17-2.31,2.16-4.25,2.98-5.83
				c0.81-1.58,1.33-2.42,1.55-2.53c0.05,0.05,0.08,0.14,0.08,0.24c0,0.98,0.01,2.22,0.04,3.71c0.03,1.49,0.12,3.1,0.29,4.81
				c0.16,1.71,0.42,3.44,0.77,5.18c0.35,1.74,0.84,3.3,1.47,4.69c0.62,1.39,1.41,2.51,2.36,3.38c0.95,0.87,2.13,1.3,3.54,1.3
				c1.3,0,2.65-0.48,4.04-1.43c1.39-0.95,2.72-2.09,3.99-3.42c0.11-0.12,0.21-0.25,0.33-0.37c0.03,0.24,0.05,0.48,0.08,0.74
				c0.13,0.98,0.38,1.9,0.73,2.77c0.35,0.87,0.86,1.6,1.51,2.2c0.65,0.6,1.47,0.9,2.44,0.9c1.09,0,2.19-0.41,3.3-1.22
				s2.19-1.79,3.22-2.93c1.03-1.14,1.97-2.32,2.81-3.55c0.84-1.22,1.54-2.24,2.08-3.06c-0.06,0.98-0.03,2.19,0.08,3.63
				c0.11,1.44,0.38,2.83,0.81,4.16c0.44,1.33,1.06,2.47,1.88,3.42c0.81,0.95,1.9,1.43,3.26,1.43c1.41,0,2.84-0.41,4.28-1.22
				c1.44-0.81,2.8-1.82,4.07-3.02c1.28-1.2,2.46-2.47,3.55-3.83c0.46-0.57,0.87-1.1,1.28-1.62c0.87-0.89,1.67-1.89,2.39-3.03
				c0.76-1.19,1.47-2.44,2.12-3.75c0.65-1.3,1.24-2.61,1.75-3.91s0.99-2.55,1.43-3.75c1.19,0.38,2.3,0.98,3.3,1.79
				c1.01,0.81,1.51,1.9,1.51,3.26c0,1.52-0.07,3.02-0.21,4.48c-0.14,1.47-0.2,2.96-0.2,4.48c0,0.98,0.04,2.12,0.12,3.42
				c0.08,1.3,0.31,2.54,0.69,3.7c0.38,1.16,0.95,2.15,1.71,2.98c0.76,0.82,1.82,1.24,3.18,1.24c1.3,0,2.76-0.52,4.36-1.55
				c1.6-1.04,3.15-2.29,4.65-3.75c1.49-1.46,2.88-2.98,4.16-4.56c0.57-0.7,1.07-1.34,1.51-1.94c0.02,0.28,0.05,0.55,0.08,0.84
				c0.16,1.6,0.52,3.13,1.06,4.56c0.54,1.44,1.29,2.66,2.24,3.67c0.95,1.01,2.24,1.51,3.87,1.51c1.47,0,2.96-0.48,4.48-1.43
				c1.52-0.95,3-2.11,4.44-3.46c1.44-1.36,2.76-2.78,3.95-4.28C278.14,81.56,278.32,81.33,278.5,81.11z"/>
			<path d="M302.16,107.33c-0.24,0.16-0.48,0.3-0.72,0.43c-1.42,0.77-2.97,0.79-4.11-0.02c-0.67,0.37-1.36,0.56-2.06,0.6
				c-1.02,2-2.16,3.67-3.43,4.96c-1.39,1.41-2.95,2.12-4.69,2.12c-0.76,0-1.32-0.18-1.67-0.53c-0.35-0.35-0.65-0.76-0.9-1.22
				c-0.25-0.46-0.49-0.87-0.73-1.22c-0.24-0.35-0.61-0.53-1.1-0.53c-0.54,0-0.98,0.2-1.3,0.61c-0.33,0.41-0.49,0.86-0.49,1.34
				c0,0.27,0.06,0.53,0.16,0.77c0.11,0.25,0.22,0.5,0.33,0.77c0.65,1.14,1.49,1.98,2.53,2.53c1.03,0.54,2.2,0.81,3.51,0.81
				c3.37,0,6.22-0.98,8.56-2.93c2.34-1.96,4.29-4.5,5.87-7.62c0.12-0.25,0.23-0.51,0.35-0.76
				C302.24,107.41,302.2,107.37,302.16,107.33z"/>
		</g>
	</g>
	<path d="M309.79,101.89c-0.04-0.1-0.12-0.15-0.24-0.15c-0.14,0-0.27,0.08-0.38,0.25c-0.11,0.17-0.2,0.31-0.28,0.42
		c-0.14,0.24-0.34,0.53-0.58,0.87c-0.25,0.34-0.52,0.66-0.81,0.97c-0.29,0.3-0.6,0.56-0.92,0.77c-0.33,0.21-0.65,0.32-0.96,0.32
		c-0.21,0-0.38-0.14-0.51-0.42c-0.13-0.28-0.22-0.61-0.28-0.99c-0.06-0.38-0.09-0.74-0.11-1.1c-0.01-0.36-0.02-0.62-0.02-0.77
		c0.34-0.67,0.72-1.46,1.14-2.38c0.42-0.92,0.81-1.87,1.17-2.85c0.36-0.98,0.66-1.96,0.9-2.92c0.24-0.96,0.36-1.81,0.36-2.55
		c0-0.18-0.01-0.41-0.04-0.67c-0.03-0.26-0.08-0.51-0.17-0.75c-0.08-0.24-0.2-0.45-0.36-0.62c-0.16-0.17-0.36-0.25-0.62-0.25
		c-0.21,0-0.42,0.07-0.63,0.21c-0.21,0.14-0.39,0.28-0.54,0.42c-0.3,0.27-0.57,0.64-0.83,1.1c-0.25,0.47-0.49,0.98-0.71,1.54
		c-0.22,0.56-0.41,1.15-0.57,1.78s-0.31,1.25-0.42,1.85c-0.12,0.6-0.21,1.18-0.27,1.73c-0.06,0.55-0.08,1.03-0.08,1.42
		c-0.28-0.33-0.64-0.49-1.08-0.49c-0.33,0-0.67,0.09-1.03,0.27c-0.36,0.18-0.66,0.36-0.9,0.56c-0.62,0.54-1.12,1.21-1.48,2.01
		c-0.1,0.21-0.14,0.42-0.21,0.64c-0.11,0.2-0.24,0.43-0.41,0.69c-0.21,0.33-0.45,0.64-0.72,0.94c-0.27,0.3-0.55,0.57-0.84,0.79
		c-0.29,0.22-0.58,0.33-0.86,0.33c-0.17,0-0.3-0.04-0.39-0.13c-0.09-0.08-0.16-0.19-0.2-0.32c-0.04-0.13-0.07-0.27-0.07-0.41
		s-0.01-0.29-0.01-0.41c0-0.5,0.01-0.99,0.04-1.49c0.03-0.49,0.04-0.99,0.04-1.49c0-0.16-0.01-0.35-0.02-0.57
		c-0.01-0.23-0.05-0.45-0.12-0.68c-0.06-0.23-0.16-0.42-0.29-0.57c-0.13-0.16-0.3-0.23-0.51-0.23c-0.27,0-0.58,0.16-0.94,0.47
		c-0.36,0.31-0.72,0.67-1.07,1.08c-0.35,0.41-0.68,0.83-0.99,1.25c-0.3,0.42-0.53,0.75-0.69,0.98c0.06-0.41,0.13-0.82,0.21-1.23
		c0.08-0.41,0.2-0.81,0.36-1.21c0.13-0.34,0.25-0.71,0.37-1.12c0.12-0.4,0.18-0.79,0.18-1.16c0-0.23-0.05-0.4-0.14-0.53
		c-0.09-0.13-0.26-0.19-0.5-0.19c-0.27,0-0.53,0.11-0.78,0.32c-0.25,0.21-0.4,0.45-0.46,0.7c-0.07,0.33-0.14,0.66-0.19,1
		s-0.12,0.67-0.19,1c-0.17,0.8-0.34,1.65-0.51,2.5c-0.01,0.01-0.02,0.01-0.02,0.02c-0.08,0.12-0.16,0.24-0.23,0.35
		c-0.13,0.2-0.32,0.46-0.57,0.79c-0.25,0.33-0.53,0.64-0.83,0.95c-0.3,0.3-0.6,0.57-0.91,0.8c-0.31,0.23-0.59,0.34-0.85,0.34
		c-0.17,0-0.3-0.09-0.39-0.27c-0.09-0.18-0.16-0.38-0.2-0.62c-0.04-0.23-0.07-0.46-0.07-0.69s-0.01-0.4-0.01-0.51
		c0-0.37,0.03-0.76,0.07-1.18s0.13-0.81,0.24-1.18c0.06-0.16,0.13-0.36,0.23-0.62c0.1-0.25,0.15-0.46,0.15-0.62
		c0-0.14-0.05-0.23-0.16-0.28c-0.11-0.04-0.22-0.06-0.33-0.06c-0.2,0-0.35,0.07-0.46,0.2c-0.11,0.14-0.2,0.28-0.27,0.44
		c-0.07,0.14-0.17,0.36-0.31,0.65s-0.29,0.6-0.48,0.94s-0.38,0.69-0.58,1.05c-0.2,0.36-0.41,0.69-0.63,0.98
		c-0.21,0.29-0.42,0.53-0.62,0.72c-0.2,0.19-0.38,0.29-0.53,0.29c-0.13,0-0.2-0.06-0.23-0.19c-0.03-0.13-0.04-0.23-0.04-0.32
		c0-0.81,0.16-1.56,0.49-2.26c0.33-0.7,0.76-1.33,1.32-1.9c0.31-0.32,0.64-0.61,0.99-0.86s0.71-0.48,1.09-0.71
		c0.06-0.03,0.11-0.06,0.15-0.1c0.04-0.03,0.06-0.09,0.06-0.16c0-0.16-0.08-0.3-0.23-0.45c-0.16-0.14-0.31-0.21-0.47-0.21
		c-0.62,0-1.22,0.21-1.79,0.64c-0.57,0.42-1.08,0.95-1.53,1.58c-0.45,0.63-0.8,1.3-1.07,2.01c-0.27,0.71-0.4,1.34-0.4,1.89
		c0,0.2,0.02,0.42,0.05,0.68c0.04,0.25,0.1,0.5,0.19,0.72c0.09,0.23,0.22,0.42,0.39,0.57c0.17,0.16,0.38,0.23,0.64,0.23
		c0.28,0,0.57-0.11,0.86-0.32c0.29-0.21,0.57-0.47,0.84-0.76c0.27-0.3,0.51-0.61,0.73-0.92c0.22-0.32,0.4-0.58,0.54-0.8
		c-0.01,0.25-0.01,0.57,0.02,0.94c0.03,0.38,0.1,0.74,0.21,1.08c0.11,0.35,0.28,0.64,0.49,0.89c0.21,0.25,0.49,0.37,0.85,0.37
		c0.37,0,0.74-0.11,1.11-0.32c0.37-0.21,0.73-0.47,1.06-0.79c0.33-0.31,0.64-0.64,0.92-1c0.08-0.1,0.13-0.17,0.21-0.27
		c-0.1,0.72-0.16,1.44-0.16,2.13c0,0.14,0.03,0.27,0.11,0.37c0.07,0.11,0.18,0.16,0.34,0.16c0.2,0,0.37-0.07,0.52-0.21
		c0.15-0.14,0.27-0.3,0.35-0.47c0.24-0.54,0.49-1.07,0.74-1.58c0.25-0.52,0.54-1.02,0.85-1.52c0.25-0.41,0.54-0.84,0.85-1.29
		c0.31-0.45,0.64-0.85,1-1.19c0.06-0.06,0.13-0.13,0.23-0.21c0.1-0.08,0.18-0.13,0.25-0.13c0.08,0,0.14,0.06,0.16,0.17
		c0.02,0.11,0.03,0.2,0.03,0.25c0,0.41-0.01,0.81-0.04,1.21s-0.04,0.8-0.04,1.21c0,0.27,0.01,0.57,0.03,0.89s0.08,0.63,0.19,0.91
		c0.11,0.28,0.26,0.52,0.47,0.71c0.2,0.19,0.49,0.29,0.86,0.29c0.4,0,0.8-0.13,1.22-0.38c0.42-0.25,0.81-0.57,1.19-0.93
		c0.2-0.19,0.35-0.42,0.53-0.62c0,0.17,0.02,0.35,0.07,0.56c0.05,0.23,0.12,0.44,0.22,0.65c0.1,0.21,0.23,0.38,0.39,0.52
		s0.36,0.21,0.58,0.21c0.31,0,0.65-0.1,1.02-0.3c0.37-0.2,0.73-0.44,1.08-0.71c0.35-0.28,0.69-0.57,1-0.88
		c0.31-0.31,0.57-0.57,0.76-0.79c0.04,0.28,0.11,0.61,0.2,0.98c0.09,0.37,0.22,0.72,0.39,1.05c0.17,0.33,0.38,0.62,0.63,0.85
		c0.25,0.23,0.56,0.35,0.92,0.35c0.45,0,0.88-0.11,1.28-0.34c0.4-0.23,0.78-0.51,1.14-0.84c0.35-0.33,0.67-0.7,0.97-1.09
		c0.29-0.4,0.55-0.76,0.77-1.1c0.08-0.13,0.17-0.27,0.27-0.42c0.09-0.16,0.14-0.31,0.14-0.47
		C309.84,102.09,309.82,101.99,309.79,101.89z M302.4,102.67c-0.3,0.34-0.64,0.68-1.01,1.02c-0.37,0.34-0.74,0.64-1.1,0.89
		c-0.37,0.25-0.67,0.38-0.89,0.38c-0.11,0-0.18-0.05-0.19-0.16c-0.01-0.11-0.02-0.2-0.02-0.27c0-0.44,0.11-0.92,0.32-1.44
		c0.21-0.52,0.5-1.01,0.85-1.45c0.35-0.45,0.76-0.82,1.21-1.12c0.45-0.3,0.92-0.46,1.4-0.46c0,0.31,0,0.62,0,0.91
		c0,0.3,0.01,0.6,0.04,0.91C302.91,102.07,302.7,102.33,302.4,102.67z M304.58,100.08c0-0.31,0.03-0.73,0.08-1.24
		c0.06-0.52,0.14-1.09,0.24-1.71s0.23-1.27,0.37-1.93c0.14-0.67,0.29-1.29,0.46-1.89c0.16-0.59,0.34-1.12,0.52-1.58
		c0.18-0.46,0.37-0.8,0.55-1.01c0.04-0.04,0.09-0.09,0.15-0.15c0.06-0.06,0.12-0.08,0.19-0.08c0.06,0,0.1,0.03,0.13,0.07
		c0.03,0.05,0.05,0.11,0.06,0.18c0.01,0.07,0.02,0.14,0.02,0.21c0,0.06,0,0.1,0,0.13c0,0.65-0.09,1.39-0.28,2.21
		c-0.18,0.82-0.41,1.65-0.69,2.48c-0.28,0.83-0.58,1.65-0.9,2.44c-0.33,0.79-0.63,1.49-0.91,2.08V100.08z"/>
</g>
<circle class="st0" cx="56.9" cy="71.07" r="49.61"/>
<g>
	<path d="M104.06,55.75c-3.43-10.94-9.82-17.78-13.95-21.55c-4.13-3.77-12.93-10.11-24.48-11.98c-11.37-1.93-19.79,0-26.46,2.49
		c-7.36,2.81-13.96,7.38-18.77,12.71c-4.41,4.54-10,12.99-12.03,23.23C6.02,70.9,7.8,80.1,9.74,86.48c0.59,1.95,1.34,3.86,2.21,5.71
		c4.41,9.35,12.28,18.61,21.89,22.83c0.6,0.26,1.22,0.49,1.87,0.54c0.84,0.07,1.6-0.21,2.31-0.64c0.3-0.18,0.99-0.59,1.11-0.97
		c0,0,0-0.01,0-0.01c0.05-0.04,0.11-0.08,0.14-0.15c0.04-0.09,0.04-0.2,0.01-0.29c0.49-0.73,2.09-3.03,3.38-3.52l0.92-3.33
		l-2.59-1.15l-1.86,2.92c0.49,1.29-0.14,4.02-0.36,4.87c-0.09,0.04-0.16,0.1-0.21,0.2c-0.02,0.06-0.02,0.11-0.02,0.17
		c-0.28,0.15-0.56,0.27-0.86,0.36c-2.18,0.62-4.06-0.82-5.84-1.91c-2.02-1.23-3.95-2.62-5.76-4.14c-3.55-2.98-6.69-6.5-9.07-10.49
		c-3.92-6.57-6.44-12.61-7.16-22.04C9.13,66,12.03,57.18,14.41,52.28c2.37-4.9,6.41-10.89,13.61-16.64
		c7.19-5.75,16.06-8.2,21.94-9.1c5.87-0.9,16.18-0.5,24.33,3.24c8.15,3.74,13.33,7.72,18.46,14.15c5.13,6.43,8.78,15.41,9.55,23.27
		c1.25,8.33-1.08,19.22-4.25,25.42c-3.07,6.35-7.79,12.56-15.28,17.98c-7.83,5.51-16.24,7.94-24.76,8.32
		c-3.51,0.27-7.35-0.29-8.54-0.45c-0.49-0.07-1.42-0.23-1.64,0.4c-0.09,0.25,0.02,0.53,0.2,0.72c0.33,0.35,0.73,0.41,1.17,0.46
		c6.41,0.79,12.58,0.82,18.91-0.64c10.69-2.45,19.95-8.48,27.05-16.75c4.37-5.09,8.78-13.19,10.35-21.61
		C107.08,72.63,107.05,65.1,104.06,55.75z M40.63,108.61c0.11-0.24,0.39-0.35,0.63-0.24c0.24,0.11,0.35,0.39,0.24,0.63
		c-0.09,0.21-0.32,0.32-0.53,0.27l-1.95,4.39c-0.05-0.03-0.11-0.05-0.19-0.06l1.96-4.41C40.61,109.06,40.54,108.82,40.63,108.61z"/>
	<path d="M47.72,97.99l5.63-12.94c3.91-0.49,8.11,0.45,11.92,0.87c0.32,0.04,0.64,0.09,0.97,0.11c0.83,0.05,1.58-0.18,2.22-0.73
		c1.22-1.02,2.21-2.15,3.25-3.35c0.15-0.17,0.3-0.36,0.32-0.59c0.09-1.21-5.64-2.01-6.55-2.11c-2.43-0.26-4.91-0.11-7.28,0.48
		c-1.22,0.3-2.41,0.83-3.39,1.62l6.34-16.06c0.12-0.1,0.23-0.21,0.33-0.33c0.35-0.3,0.77-0.77,1.26-1.49
		c1.17-1.73,2.57-5.75,3.22-7.72c0.11,0.12,0.21,0.24,0.3,0.36c0.32,0.44,0.58,0.93,0.95,1.31c0.64,0.65,1.5,0.95,2.37,1.15
		c1.06,0.24,1.98,0.66,2.5,1.69c0.27,0.53,0.56,1.06,0.79,1.61c0.26,0.61,0.51,1.2,1.06,1.61c0.45,0.34,0.94,0.6,1.53,0.54
		c0.54-0.05,1.06,0.04,1.56,0.24c0.78,0.3,1.49,0.01,2.09-0.43c0.75-0.55,1.46-1.18,1.89-2.04c0.49-0.97,0.52-1.83-0.29-2.78
		c-0.44-0.52-0.93-0.9-1.64-0.97c-0.13-0.01-0.28-0.09-0.36-0.19c-0.68-0.92-1.55-1.61-2.48-2.24c-0.61-0.41-1.25-0.78-1.9-1.13
		c-0.34-0.18-0.73-0.27-1.09-0.42c-0.11-0.05-0.21-0.14-0.37-0.26c0.44-0.12,0.74,0.04,1.06,0.15c0.37,0.13,0.76,0.26,1.15,0.3
		c0.34,0.04,0.62-0.13,0.79-0.47c0.05-0.1,0.23-0.2,0.35-0.2c0.99,0.08,1.99,0.15,2.98,0.3c0.35,0.05,0.66,0.31,0.99,0.47
		c0.51,0.26,1.01,0.55,1.54,0.77c0.2,0.08,0.49,0.07,0.7-0.02c0.7-0.3,1.39-0.16,2.08,0.02c0.23,0.06,0.45,0.16,0.69,0.2
		c0.44,0.07,0.74-0.03,0.97-0.47c0.12-0.23,0.29-0.29,0.53-0.27c0.57,0.06,0.83-0.14,0.9-0.72c0.1-0.83-0.28-1.46-0.9-1.94
		c-0.32-0.25-0.69-0.47-1.06-0.64c-0.56-0.25-1.13-0.05-1.69,0.06c-0.1,0.02-0.19,0.06-0.28,0.08c-0.5,0.14-0.58,0.09-0.66-0.42
		c-0.06-0.37-0.25-0.67-0.59-0.85c-0.26-0.14-0.54-0.24-0.79-0.38c-0.12-0.07-0.23-0.19-0.28-0.32c-0.06-0.14-0.05-0.3-0.07-0.5
		c0.21-0.16,0.14-0.32-0.51-0.91c0.2-0.05,0.37-0.1,0.55-0.14c0.95-0.19,1.79-0.62,2.57-1.17c0.29-0.21,0.33-0.42,0.07-0.66
		c-0.1-0.09-0.93-0.52-1.01-0.47c0.21-0.12,0.4-0.3,0.53-0.5c0.18-0.29-0.03-0.45-0.31-0.5c-0.62-0.11-1.18,0.14-1.74,0.35
		c-0.38,0.14-0.75,0.29-1.14,0.44c-0.14-0.24-0.27-0.45-0.38-0.64c0.35-0.44,0.74-0.87,1.04-1.35c0.21-0.34,0.35-0.75,0.44-1.14
		c0.1-0.43-0.08-0.56-0.4-0.8c-0.02-0.02-0.04-0.03-0.06-0.06c-0.03-0.05,0-0.11,0.02-0.16c0.14-0.33,0.27-0.73,0.11-1.07
		c-0.17,0.06-0.34,0.14-0.51,0.23c0.01-0.29,0.03-0.57,0.02-0.86c-0.01-0.28,0-0.62-0.32-0.73c-0.35-0.12-0.47,0.24-0.66,0.43
		c-0.04,0.04-0.07,0.1-0.11,0.16c-0.35-0.68-0.67-0.81-1.34-0.42c-0.61,0.35-1.15,0.81-1.72,1.22c-0.07,0.05-0.13,0.11-0.21,0.18
		c0.2-1.48,0.14-2.93,0.06-4.38c-0.02-0.31-0.11-0.62-0.2-0.92c-0.24-0.78-1-1.12-1.75-0.82c-0.16,0.07-0.3,0.18-0.46,0.24
		c-0.22,0.08-1.46,0.2-1.52,0.31c0.17-0.36,0.31-0.74,0.44-1.12c0.05-0.15,0.08-0.33-0.03-0.44c-0.09-0.09-0.23-0.08-0.34-0.04
		c-0.36,0.14-0.62,0.4-0.87,0.68c-0.14,0.16-0.26,0.35-0.4,0.53c-0.06-0.19-0.11-0.41-0.2-0.59c-0.31-0.64-0.71-0.27-1.14,0.03
		c0.12-0.31,0.18-0.64,0.18-0.97c-0.49-0.07-1.16,0.83-1.46,1.15c-0.61,0.66-1.19,1.34-1.43,2.23c-0.07,0.28-0.04,0.58-0.08,0.86
		c-0.01,0.1-0.05,0.22-0.12,0.29c-0.42,0.4-0.72,0.87-0.9,1.42c-0.02,0.05-0.06,0.11-0.04,0.16c0.13,0.41-0.18,0.56-0.42,0.74
		c-0.87,0.63-0.99,0.81-1.27,1.83c-0.03,0.01-0.07,0.02-0.1,0.03c-0.03-0.17-0.07-0.34-0.09-0.52c-0.14-0.98-0.6-1.84-1.01-2.72
		c-0.13-0.27-0.18-0.54-0.14-0.85c0.09-0.68,0.19-1.38-0.18-1.99c-0.02-0.03-0.04-0.05-0.07-0.06c-0.03,0-0.05,0.02-0.07,0.04
		c-0.33,0.31-0.48,0.71-0.61,1.14c-0.27-0.86-0.56-1.71-0.89-2.55c-0.05-0.14-0.15-0.26-0.24-0.39c-0.28-0.38-0.54-0.38-0.85-0.03
		c-0.03,0.04-0.07,0.08-0.1,0.12c-0.24-0.17-0.48-0.33-0.7-0.5c-0.26-0.19-0.52-0.2-0.79-0.01c-0.18,0.13-0.36,0.16-0.57,0.03
		c-0.25-0.16-0.49-0.05-0.74,0.06c-0.55,0.24-1.12,0.44-1.67,0.69c-0.04,0.02-0.07,0.04-0.09,0.07c-0.01,0.03,0,0.07,0.02,0.1
		c0.08,0.17,0.19,0.32,0.33,0.45c0.03,0.03,0.07,0.07,0.07,0.11c0,0.03-0.01,0.06-0.03,0.09c-0.18,0.33-0.34,0.66-0.53,0.98
		c-0.15,0.26-0.13,0.5,0,0.77c0.35,0.69,0.67,1.39,1.01,2.1c-0.84-0.17-1.61-0.48-2.22-1.13c-0.18-0.2-0.37-0.4-0.56-0.59
		c-0.28-0.27-0.45-0.25-0.65,0.08c-0.14,0.23-0.27,0.19-0.41,0.04c-0.24-0.25-0.47-0.52-0.71-0.77c-0.37-0.38-0.79-0.69-1.31-0.82
		c-0.71-0.17-1.03-0.02-1.33,0.64c-0.11,0.23-0.18,0.49-0.22,0.75c-0.08,0.54,0.12,0.89,0.62,1.13c0.16,0.07,0.34,0.13,0.46,0.24
		c0.17,0.15,0.31,0.35,0.44,0.51c-0.68,0.06-1.29,0.12-1.91,0.18c-1,0.1-1.81,0.57-2.52,1.25c-0.47,0.45-0.99,0.84-1.49,1.25
		c-0.07,0.06-0.15,0.13-0.17,0.22c-0.07,0.33,0.92,0.53,1.14,0.57c0.46,0.07,0.93,0.04,1.39,0.01c0.85-0.06,1.42,0.31,1.74,1.12
		c0.16,0.39,0.33,0.78,0.49,1.17c-0.52,0.19-1.09,0.39-1.65,0.62c-0.21,0.08-0.42,0.2-0.57,0.36c-0.27,0.3-0.21,0.67,0.14,1.09
		c0.15,0.18,0.2,0.34,0.09,0.56c-0.39,0.81-0.24,1.32,0.53,1.79c0.64,0.38,1.29,0.73,1.93,1.1c0.14,0.08,0.27,0.18,0.39,0.3
		c1.27,1.32,2.83,1.67,4.57,1.36c0.6-0.11,1.18-0.28,1.68-0.4c-0.16,0.37-0.38,0.77-0.5,1.21c-0.12,0.44,0.15,0.7,0.6,0.62
		c0.27-0.05,0.55-0.14,0.8-0.27c0.71-0.38,1.41-0.78,2.11-1.17c0.05-0.03,0.11-0.05,0.2-0.1c0,0-2.22,6.23-2.42,7.73
		c-0.18,1.34-0.49,2.22-0.16,4.22l-4.54,11.86c0.04-1.18-0.05-2.39-0.2-3.64c-0.03-0.25-0.06-0.5-0.16-0.72
		c-0.53-1.25-2.56-2.38-3.62-3.13c-1.45-1.02-2.97-1.94-4.53-2.79c-1.69-0.91-3.38-0.69-5.25-0.61c-0.21,0.01-0.55,0.1-0.59,0.24
		c-0.1,0.29,0.26,0.29,0.43,0.38c1.06,0.57,2.09,1.23,3.02,1.99c0.7,0.57,1.75,1.23,2.08,2.1c0.29,0.77-0.07,1.57-0.18,2.34
		c-0.11,0.73-0.52,2.15-0.17,2.83c0.13,0.26,0.37,0.44,0.6,0.61c1.32,1,2.69,1.94,3.93,3.04c0.63,0.57,1.23,1.18,1.75,1.85
		c0.27,0.35,0.5,0.73,0.74,1.1l-1.91,4.99c-0.26-0.24-0.56-0.43-0.8-0.56c-0.56-0.31-5.11-3.82-5.29-2.62
		c-0.22,1.45,0.07,3.02,0.92,4.23c0.85,1.21,2.45,1.84,3.9,2.28l-2.76,7.21c-1.07,2.65-2.56,6.34-2.7,6.65
		c-0.21,0.48-0.82,0.47-1.01,0.88c-0.14,0.31,0.03,0.63,0.28,0.74c0.27,0.12,3.26,1.45,3.53,1.57c0.25,0.11,0.6,0.03,0.74-0.28
		c0.18-0.41-0.23-0.86-0.02-1.33C45.09,104.5,46.47,100.55,47.72,97.99z"/>
</g>
</svg>
