<?xml version="1.0" encoding="utf-8"?>
<!-- Generator: Adobe Illustrator 24.2.3, SVG Export Plug-In . SVG Version: 6.00 Build 0)  -->
<svg version="1.1" id="Layer_1" xmlns="http://www.w3.org/2000/svg" xmlns:xlink="http://www.w3.org/1999/xlink" x="0px" y="0px"
	 viewBox="0 0 144 144" style="enable-background:new 0 0 144 144;" xml:space="preserve">
<style type="text/css">
	.st0{fill:#FFE26A;}
</style>
<circle class="st0" cx="72.04" cy="72.01" r="66.94"/>
<g>
	<path d="M135.66,51.35c-4.62-14.76-13.25-23.99-18.82-29.08C111.28,17.18,99.39,8.63,83.81,6.1c-15.34-2.6-26.7,0-35.7,3.37
		c-9.93,3.79-18.83,9.96-25.33,17.15C16.83,32.75,9.29,44.15,6.55,57.97C3.38,71.79,5.78,84.2,8.39,92.81
		c0.79,2.64,1.81,5.21,2.98,7.7c5.95,12.62,16.57,25.11,29.53,30.81c0.81,0.35,1.65,0.66,2.53,0.73c1.13,0.1,2.16-0.28,3.11-0.87
		c0.4-0.25,1.34-0.8,1.5-1.3c0,0,0-0.01,0-0.02c0.07-0.05,0.14-0.11,0.18-0.2c0.06-0.13,0.06-0.26,0.01-0.38
		c0.66-0.99,2.82-4.09,4.56-4.75l1.25-4.5l-3.49-1.56l-2.51,3.94c0.67,1.74-0.19,5.42-0.48,6.57c-0.12,0.05-0.22,0.14-0.28,0.27
		c-0.03,0.08-0.02,0.15-0.02,0.23c-0.37,0.2-0.76,0.37-1.16,0.48c-2.95,0.83-5.48-1.11-7.88-2.58c-2.72-1.66-5.32-3.53-7.77-5.58
		c-4.79-4.02-9.03-8.77-12.24-14.15c-5.29-8.87-8.7-17.01-9.66-29.75c-0.97-12.73,2.94-24.63,6.14-31.24
		c3.2-6.61,8.66-14.7,18.36-22.45c9.7-7.75,21.67-11.07,29.6-12.28c7.93-1.21,21.83-0.68,32.83,4.38
		c11,5.05,17.99,10.41,24.91,19.09c6.92,8.68,11.84,20.79,12.89,31.4c1.68,11.24-1.46,25.94-5.73,34.3
		c-4.14,8.57-10.51,16.95-20.62,24.26c-10.56,7.43-21.91,10.71-33.41,11.23c-4.74,0.36-9.91-0.39-11.53-0.61
		c-0.66-0.09-1.91-0.3-2.21,0.53c-0.12,0.33,0.02,0.71,0.27,0.97c0.44,0.47,0.99,0.55,1.58,0.62c8.65,1.07,16.98,1.1,25.52-0.86
		c14.43-3.31,26.91-11.44,36.5-22.6c5.9-6.86,11.85-17.8,13.97-29.16S139.7,63.97,135.66,51.35z M50.08,122.68
		c0.14-0.32,0.52-0.47,0.84-0.32c0.32,0.14,0.47,0.52,0.32,0.84c-0.12,0.28-0.43,0.43-0.72,0.37l-2.64,5.92
		c-0.06-0.04-0.14-0.07-0.26-0.08l2.65-5.95C50.04,123.28,49.95,122.96,50.08,122.68z"/>
	<path d="M59.64,108.34l7.59-17.46c5.27-0.66,10.94,0.6,16.09,1.18c0.43,0.05,0.87,0.12,1.3,0.15c1.13,0.07,2.13-0.25,3-0.99
		c1.64-1.37,2.98-2.9,4.38-4.52c0.2-0.23,0.41-0.49,0.43-0.79c0.12-1.63-7.6-2.72-8.84-2.85c-3.28-0.35-6.63-0.15-9.83,0.65
		c-1.64,0.41-3.25,1.11-4.57,2.19l8.56-21.68c0.16-0.13,0.31-0.28,0.44-0.44c0.47-0.41,1.03-1.04,1.69-2.02
		c1.58-2.34,3.47-7.77,4.35-10.42c0.15,0.17,0.28,0.32,0.4,0.49c0.44,0.59,0.78,1.26,1.28,1.77c0.87,0.88,2.02,1.29,3.2,1.56
		c1.43,0.32,2.68,0.89,3.38,2.27c0.36,0.72,0.75,1.43,1.07,2.18c0.35,0.82,0.69,1.62,1.43,2.18c0.61,0.46,1.27,0.8,2.06,0.73
		c0.73-0.07,1.42,0.06,2.1,0.32c1.06,0.41,2,0.02,2.82-0.58c1.01-0.74,1.97-1.6,2.55-2.75c0.67-1.31,0.7-2.46-0.39-3.75
		c-0.59-0.7-1.26-1.22-2.21-1.31c-0.17-0.02-0.38-0.13-0.48-0.26c-0.91-1.24-2.09-2.18-3.35-3.02c-0.83-0.55-1.69-1.06-2.56-1.53
		c-0.46-0.25-0.98-0.37-1.47-0.57c-0.15-0.06-0.28-0.19-0.5-0.35c0.59-0.17,1,0.05,1.43,0.2c0.5,0.17,1.02,0.34,1.55,0.4
		c0.45,0.05,0.84-0.17,1.07-0.63c0.07-0.14,0.32-0.28,0.47-0.26c1.34,0.11,2.69,0.2,4.02,0.4c0.47,0.07,0.89,0.41,1.34,0.64
		c0.69,0.35,1.37,0.74,2.08,1.03c0.27,0.11,0.67,0.09,0.94-0.02c0.95-0.4,1.87-0.22,2.8,0.03c0.31,0.08,0.61,0.22,0.93,0.27
		c0.6,0.1,0.99-0.04,1.31-0.64c0.17-0.31,0.39-0.39,0.72-0.36c0.77,0.08,1.12-0.19,1.22-0.97c0.14-1.12-0.38-1.97-1.22-2.62
		c-0.44-0.34-0.93-0.63-1.43-0.86c-0.76-0.34-1.53-0.06-2.29,0.08c-0.13,0.02-0.25,0.08-0.38,0.11c-0.68,0.19-0.78,0.12-0.9-0.57
		c-0.09-0.5-0.34-0.91-0.8-1.15c-0.35-0.19-0.73-0.32-1.07-0.52c-0.16-0.09-0.31-0.26-0.38-0.43c-0.08-0.18-0.06-0.41-0.09-0.67
		c0.28-0.21,0.19-0.43-0.69-1.22c0.27-0.07,0.5-0.14,0.74-0.19c1.28-0.25,2.41-0.84,3.46-1.58c0.4-0.28,0.45-0.56,0.1-0.89
		c-0.13-0.12-1.25-0.7-1.36-0.63c0.29-0.16,0.54-0.4,0.71-0.68c0.24-0.38-0.04-0.6-0.42-0.67c-0.84-0.15-1.59,0.19-2.34,0.48
		c-0.51,0.19-1.01,0.39-1.54,0.6c-0.19-0.32-0.36-0.6-0.52-0.87c0.47-0.6,0.99-1.17,1.4-1.82c0.29-0.46,0.47-1.01,0.6-1.54
		c0.13-0.58-0.11-0.76-0.54-1.08c-0.03-0.02-0.06-0.04-0.08-0.08c-0.03-0.06-0.01-0.14,0.02-0.21c0.18-0.44,0.36-0.98,0.15-1.45
		c-0.24,0.08-0.47,0.19-0.68,0.31c0.01-0.39,0.04-0.78,0.03-1.16c-0.01-0.38,0-0.83-0.43-0.98c-0.47-0.16-0.63,0.32-0.89,0.58
		c-0.06,0.06-0.1,0.13-0.15,0.21c-0.48-0.91-0.9-1.09-1.81-0.57c-0.82,0.47-1.56,1.09-2.33,1.65c-0.09,0.07-0.17,0.14-0.29,0.24
		c0.28-2,0.19-3.95,0.08-5.91c-0.02-0.42-0.15-0.84-0.27-1.25c-0.33-1.05-1.35-1.52-2.36-1.1c-0.22,0.09-0.4,0.25-0.62,0.32
		c-0.3,0.1-1.98,0.26-2.05,0.42c0.23-0.49,0.42-1,0.59-1.51c0.06-0.2,0.11-0.44-0.04-0.59c-0.12-0.11-0.31-0.11-0.46-0.05
		c-0.49,0.19-0.84,0.53-1.17,0.92c-0.19,0.22-0.35,0.47-0.53,0.72c-0.09-0.26-0.15-0.55-0.27-0.8c-0.42-0.87-0.96-0.37-1.54,0.04
		c0.16-0.42,0.25-0.87,0.24-1.31c-0.67-0.1-1.56,1.12-1.97,1.55c-0.82,0.88-1.61,1.81-1.93,3.01c-0.1,0.37-0.06,0.78-0.11,1.17
		c-0.02,0.14-0.07,0.3-0.16,0.39c-0.56,0.54-0.97,1.17-1.21,1.91c-0.02,0.07-0.08,0.15-0.06,0.21c0.18,0.55-0.24,0.75-0.57,1
		c-1.17,0.86-1.33,1.09-1.72,2.47c-0.05,0.01-0.09,0.03-0.14,0.04c-0.04-0.23-0.09-0.46-0.12-0.7c-0.19-1.32-0.81-2.48-1.36-3.67
		c-0.17-0.37-0.25-0.73-0.19-1.14c0.12-0.92,0.26-1.86-0.25-2.69c-0.02-0.03-0.05-0.07-0.09-0.08c-0.04,0-0.07,0.02-0.09,0.05
		c-0.45,0.42-0.64,0.96-0.83,1.53c-0.36-1.16-0.76-2.3-1.2-3.44c-0.07-0.19-0.2-0.36-0.33-0.52c-0.38-0.51-0.72-0.51-1.15-0.04
		c-0.05,0.05-0.09,0.11-0.14,0.16c-0.33-0.23-0.64-0.45-0.95-0.67c-0.35-0.25-0.71-0.27-1.06-0.01c-0.25,0.18-0.48,0.22-0.77,0.04
		c-0.34-0.21-0.66-0.06-1,0.08c-0.75,0.32-1.51,0.59-2.25,0.93c-0.05,0.02-0.1,0.05-0.12,0.1c-0.02,0.04,0,0.09,0.02,0.14
		c0.11,0.23,0.26,0.43,0.44,0.6c0.04,0.04,0.09,0.09,0.1,0.15c0,0.04-0.02,0.08-0.04,0.12c-0.24,0.44-0.46,0.89-0.71,1.32
		c-0.2,0.36-0.18,0.67,0,1.04c0.47,0.93,0.9,1.88,1.36,2.84c-1.13-0.22-2.18-0.64-2.99-1.53c-0.25-0.27-0.49-0.54-0.76-0.79
		c-0.37-0.36-0.61-0.34-0.87,0.1c-0.18,0.31-0.36,0.25-0.55,0.05c-0.33-0.34-0.63-0.7-0.96-1.03c-0.5-0.52-1.06-0.93-1.77-1.1
		c-0.95-0.23-1.4-0.02-1.8,0.86c-0.14,0.32-0.24,0.66-0.29,1.01c-0.11,0.73,0.17,1.2,0.84,1.52c0.21,0.1,0.46,0.17,0.63,0.32
		c0.24,0.21,0.42,0.48,0.6,0.69c-0.92,0.09-1.74,0.16-2.57,0.24c-1.35,0.14-2.44,0.77-3.41,1.68c-0.63,0.6-1.33,1.14-2.01,1.69
		c-0.1,0.08-0.2,0.17-0.23,0.3c-0.09,0.44,1.25,0.72,1.54,0.76c0.62,0.1,1.26,0.05,1.88,0.01c1.15-0.08,1.92,0.42,2.35,1.51
		c0.21,0.53,0.44,1.05,0.66,1.57c-0.7,0.26-1.48,0.53-2.23,0.84c-0.28,0.11-0.57,0.27-0.77,0.49c-0.36,0.4-0.29,0.9,0.18,1.46
		c0.2,0.24,0.27,0.46,0.13,0.76c-0.52,1.09-0.33,1.78,0.72,2.41c0.86,0.51,1.74,0.98,2.61,1.48c0.19,0.11,0.37,0.24,0.52,0.4
		c1.71,1.78,3.82,2.25,6.17,1.83c0.81-0.14,1.6-0.37,2.27-0.53c-0.21,0.5-0.51,1.05-0.67,1.63c-0.16,0.59,0.2,0.95,0.81,0.84
		c0.37-0.06,0.74-0.2,1.08-0.37c0.96-0.51,1.9-1.05,2.85-1.58c0.07-0.04,0.15-0.07,0.26-0.13c0,0-3,8.41-3.27,10.43
		c-0.24,1.81-0.66,3-0.22,5.7l-6.12,16c0.05-1.59-0.07-3.22-0.26-4.91c-0.04-0.33-0.08-0.67-0.21-0.98
		c-0.71-1.68-3.45-3.21-4.89-4.22c-1.95-1.38-4-2.62-6.11-3.76c-2.29-1.23-4.57-0.93-7.09-0.82c-0.28,0.01-0.74,0.14-0.8,0.32
		c-0.13,0.39,0.35,0.39,0.58,0.51c1.43,0.77,2.82,1.66,4.08,2.68c0.94,0.76,2.37,1.66,2.8,2.83c0.39,1.04-0.09,2.12-0.24,3.15
		c-0.15,0.98-0.7,2.9-0.23,3.82c0.18,0.35,0.5,0.59,0.81,0.83c1.78,1.35,3.63,2.61,5.3,4.11c0.85,0.77,1.66,1.59,2.36,2.49
		c0.37,0.47,0.67,0.99,1,1.49l-2.58,6.74c-0.35-0.32-0.76-0.59-1.08-0.76c-0.75-0.42-6.9-5.15-7.14-3.54
		c-0.3,1.95,0.1,4.07,1.24,5.7c1.14,1.64,3.31,2.49,5.27,3.08l-3.72,9.73c-1.44,3.57-3.46,8.56-3.64,8.97
		c-0.29,0.65-1.11,0.63-1.36,1.18c-0.19,0.42,0.04,0.85,0.38,1c0.36,0.16,4.4,1.96,4.76,2.12c0.34,0.15,0.81,0.04,1-0.38
		c0.25-0.56-0.32-1.15-0.03-1.8C56.1,117.13,57.96,111.8,59.64,108.34z"/>
</g>
</svg>
